Coordinates
version=1
nRows=7
nColumns=33
inDegrees=yes

Units are S.I. units (second, meters, Newtons, ...)
Angles are in degrees.

endheader
time	ground_thorax_rot_x	ground_thorax_rot_y	ground_thorax_rot_z	ground_thorax_tx	ground_thorax_ty	ground_thorax_tz	clav_prot_r	clav_elev_r	scapula_abduction_r	scapula_elevation_r	scapula_upward_rot_r	scapula_winging_r	shoulder_elv_r	plane_of_elev_r	axial_rot_r	elbow_flexion_r	pro_sup_r	wrist_flex_r	wrist_dev_r	clav_prot_l	clav_elev_l	scapula_abduction_l	scapula_elevation_l	scapula_upward_rot_l	scapula_winging_l	shoulder_elv_l	plane_of_elev_l	axial_rot_l	elbow_flexion_l	pro_sup_l	wrist_flex_l	wrist_dev_l
      6.91000000	    -40.97239159	     -4.29286269	      2.38977116	   -151.30163176	    898.48012537	     -8.91447213	      9.36319867	    -45.00000000	     40.39147808	    -45.00000000	    -27.71188399	   1700.78535068	  -2087.02961136	     31.81894797	     81.68998931	   1458.37131074	   -289.56811119	     16.91874239	      3.15026436	     14.96714892	     39.47764080	    -41.48242466	    -45.00000000	    -40.66874646	     86.87587680	  -2974.61186098	    138.29412948	    164.39737570	     13.91727173	     51.68301235	      4.63282061	    -22.39984674
      6.92000000	    -41.00132552	     -4.04778348	      2.16447610	   -148.44406768	    899.53543456	     -8.82999248	      9.24496307	    -45.00000000	     40.74373866	    -45.00000000	    -26.45016494	   1700.85557045	  -2086.97125459	     31.81086739	     81.50472235	   1458.45577905	   -288.28871033	     16.82798709	      3.08863408	     15.00590792	     39.62697815	    -41.73536787	    -45.00000000	    -39.99210867	     87.00402181	  -2974.56195504	    138.21067524	    164.82520394	     13.91968452	     51.69958391	      4.61460967	    -22.39598975
      6.93000000	    -41.03124997	     -3.84459324	      1.93899200	   -145.52317686	    900.36632118	     -8.74724521	      9.06149017	    -45.00000000	     41.21543377	    -45.00000000	    -24.98712040	   1700.95540019	  -2086.92925302	     31.71582599	     81.40583520	   1458.50379877	   -287.00793585	     16.81557777	      3.07473993	     15.23069315	     39.87379892	    -41.99462670	    -45.00000000	    -39.31105814	     87.17816551	  -2974.55719437	    138.14947870	    165.23348325	     13.91118926	     51.60782208	      4.57417361	    -22.35042317
      6.94000000	    -41.01924653	     -3.55187702	      1.70206236	   -142.54134552	    900.97485055	     -8.66280343	      8.76594167	    -45.00000000	     41.61054538	    -45.00000000	    -22.87617424	   1700.94168148	  -2086.86970225	     31.45577171	     81.70769534	   1458.74772069	   -285.47680056	     16.91205253	      3.04306387	     15.93676145	     40.20634776	    -42.36701200	    -45.00000000	    -38.73627879	     87.04721175	  -2974.61902504	    138.30474728	    165.88433516	     13.87904664	     51.31968506	      4.42042745	    -22.18080048
      6.95000000	    -41.03370988	     -3.38595165	      1.52335318	   -139.49628512	    901.36907081	     -8.57412326	      8.70446409	    -45.00000000	     42.00264324	    -45.00000000	    -21.79711573	   1701.01692191	  -2086.86871750	     31.48189146	     81.44395178	   1458.82394901	   -284.30798107	     16.77900188	      2.99288959	     15.71667881	     40.35275532	    -42.53190840	    -45.00000000	    -37.99992284	     87.19561931	  -2974.60765761	    138.16137096	    166.21188136	     13.83352622	     50.94407948	      4.52763862	    -22.24924948
      6.96000000	    -41.01758987	     -3.06178384	      1.25966996	   -136.39543183	    901.55568162	     -8.48043891	      8.53095575	    -45.00000000	     42.29087912	    -45.00000000	    -20.29837532	   1701.04748685	  -2086.82094209	     31.46435790	     81.35408191	   1458.97790769	   -283.17783837	     16.72665756	      2.94354456	     15.86710421	     40.55060453	    -42.80830466	    -45.00000000	    -37.23948492	     87.12711028	  -2974.63209219	    138.18630046	    166.57202807	     13.76910320	     50.32497274	      4.60497242	    -22.28206921
      6.97000000	    -41.04223337	     -2.99546701	      1.09529049	   -133.23965490	    901.54653825	     -8.38159244	      8.47225545	    -45.00000000	     42.69187500	    -45.00000000	    -19.39971508	   1701.19454588	  -2086.86394325	     31.52739551	     80.96867441	   1458.99430552	   -282.33433989	     16.61729589	      2.92774976	     15.61275352	     40.70062623	    -42.97507448	    -45.00000000	    -36.57198217	     87.36425532	  -2974.67963050	    138.00808130	    166.77880521	     13.69476208	     49.61843279	      4.77013590	    -22.36295355
